# xmcd
#
# Track frame offsets:
#	150
#	18619
#	29830
#	44671
#	66111
#	82070
#	104760
#	122598
#	139140
#	156336
#	178423
#	198895
#
# Disc length: 2847 seconds
#
# Revision: 1
# Processed by: cddbd v1.5.1PL2 Copyright (c) Steve Scherf et al.
# Submitted via: audiograbber 1.83.01
#
DISCID=b90b1d0c
DTITLE=Smith B - From One Heartache To The Next
DYEAR=2006
DGENRE=Country
TTITLE0=From One Heartache To The Next (Reasons To Believe)
TTITLE1=Dying Man
TTITLE2=Fire In The Kitchen
TTITLE3=Money Can Break
TTITLE4=Walking Blues
TTITLE5=Amsterdam
TTITLE6=Turn The Lights Down Now
TTITLE7=Held You Down Inside
TTITLE8=When I Travel
TTITLE9=Chicago Blues
TTITLE10=Gracious Disguise
TTITLE11=Rollercoaster Ride
EXTD=
EXTT0=
EXTT1=
EXTT2=
EXTT3=
EXTT4=
EXTT5=
EXTT6=
EXTT7=
EXTT8=
EXTT9=
EXTT10=
EXTT11=
PLAYORDER=
